<svg width="23" height="20" viewBox="0 0 23 20" fill="none" xmlns="http://www.w3.org/2000/svg">
<path d="M18.691 6.27689C20.1017 7.2989 21.381 8.49089 22.5 9.82589C22.5 9.82589 17.576 16.0429 11.5 16.0429C10.5268 16.0371 9.55969 15.8878 8.63 15.5999M4.295 13.3659C2.8885 12.3473 1.61377 11.1583 0.5 9.82589C0.5 9.82589 5.424 3.60889 11.5 3.60889C12.3068 3.61238 13.11 3.71652 13.891 3.91889" stroke="#19275A" stroke-linecap="round" stroke-linejoin="round"/>
<path d="M7.67578 9.826C7.67578 8.81128 8.07888 7.83812 8.79639 7.12061C9.5139 6.4031 10.4871 6 11.5018 6M15.3278 9.826C15.3278 10.8407 14.9247 11.8139 14.2072 12.5314C13.4897 13.2489 12.5165 13.652 11.5018 13.652M20.8278 0.5L2.17578 19.152" stroke="#19275A" stroke-linecap="round" stroke-linejoin="round"/>
</svg>
