<svg width="24" height="24" viewBox="0 0 24 24" fill="none" xmlns="http://www.w3.org/2000/svg">
<path d="M11.7275 12.4727C13.9189 12.4727 15.9138 12.9709 17.3701 13.7891V13.79C18.8194 14.6065 19.7793 15.7685 19.7793 17.1035V17.2031L19.7764 17.6396C19.7602 18.5827 19.6477 19.5083 18.9004 20.2314L18.7168 20.3945C18.1872 20.8249 17.4138 21.1581 16.2949 21.3838H16.2939C15.1724 21.6111 13.6904 21.7344 11.7275 21.7344C9.76457 21.7344 8.28153 21.6111 7.16211 21.3838H7.16113C6.04178 21.158 5.26767 20.8247 4.73926 20.3945C3.69551 19.544 3.67478 18.3647 3.67578 17.2031V17.1035C3.67578 15.7686 4.63491 14.6065 6.08496 13.79C7.54034 12.9716 9.53655 12.4727 11.7275 12.4727ZM11.7285 12.9385C9.60051 12.9385 7.68737 13.4247 6.31348 14.1973C4.93074 14.9749 4.1416 16.0124 4.1416 17.1035C4.1416 18.2582 4.15201 19.1924 4.87891 19.8955L5.03418 20.0332C5.42602 20.3519 6.00539 20.6302 6.86719 20.8408L7.25391 20.9268C8.33139 21.1451 9.78119 21.2686 11.7275 21.2686C13.4307 21.2686 14.7529 21.1747 15.7793 21.0049L16.2012 20.9268C17.2801 20.7089 17.9728 20.3969 18.4209 20.0312C19.3014 19.3152 19.3135 18.3347 19.3135 17.1035C19.3135 16.0126 18.5256 14.975 17.1416 14.1973C15.7677 13.4247 13.8546 12.9385 11.7285 12.9385ZM11.7275 1.72168C12.826 1.72168 13.8794 2.15796 14.6562 2.93457C15.4331 3.71141 15.8701 4.76564 15.8701 5.86426C15.8701 6.9628 15.433 8.01618 14.6562 8.79297C13.8794 9.56974 12.8261 10.0068 11.7275 10.0068C10.629 10.0068 9.57566 9.56974 8.79883 8.79297C8.02204 8.01618 7.58502 6.9628 7.58496 5.86426C7.58496 4.76564 8.02199 3.71141 8.79883 2.93457C9.57563 2.15796 10.6291 1.72168 11.7275 1.72168ZM11.7275 2.1875C10.7525 2.1875 9.81738 2.5752 9.12793 3.26465C8.43855 3.95409 8.05078 4.88928 8.05078 5.86426C8.05084 6.8392 8.43854 7.77447 9.12793 8.46387C9.81737 9.15324 10.7526 9.54004 11.7275 9.54004C12.7025 9.54004 13.6377 9.15325 14.3271 8.46387C15.0165 7.77447 15.4042 6.8392 15.4043 5.86426C15.4043 4.88928 15.0165 3.95409 14.3271 3.26465C13.6377 2.5752 12.7026 2.1875 11.7275 2.1875Z" stroke="#FFF8E7"/>
</svg>
